
<svg width="490" height="228" viewBox="0 0 490 228" fill="none" xmlns="http://www.w3.org/2000/svg">
<path d="M93.3154 0.694336H134.331V139.415H153.521V177.354H134.331V221.593H94.1943V177.354H0.151367V139.415L93.3154 0.694336ZM94.1943 139.415V67.1982L44.9756 139.415H94.1943Z" fill="#1A2F34"/>
<path d="M245.513 0.694336C261.235 0.694336 274.761 4.55176 286.089 12.2666C297.515 19.9814 306.304 31.7979 312.456 47.7158C318.706 63.5361 321.831 85.6064 321.831 113.927C321.831 142.54 318.657 164.806 312.31 180.724C306.06 196.642 297.612 208.36 286.968 215.88C276.323 223.302 262.896 227.013 246.685 227.013C230.474 227.013 216.851 223.253 205.815 215.733C194.78 208.214 186.138 196.788 179.888 181.456C173.638 166.124 170.513 144.298 170.513 115.978C170.513 76.4268 176.616 47.7646 188.823 29.9912C202.397 10.46 221.294 0.694336 245.513 0.694336Z" fill="#1A2F34"/>
<path d="M429.644 0.694336H470.659V139.415H489.849V177.354H470.659V221.593H430.522V177.354H336.479V139.415L429.644 0.694336ZM430.522 139.415V67.1982L381.304 139.415H430.522Z" fill="#1A2F34"/>
<path d="M207.3 65.52H223.595V107.363H266.404V65.52H282.7V162.187H266.404V120.068H223.595V162.187H207.3V65.52Z" fill="white"/>
</svg>
