<svg width="22" height="22" viewBox="0 0 22 22" fill="none" xmlns="http://www.w3.org/2000/svg">
<g clip-path="url(#clip0)">
<path d="M11.0762 21.0017C16.8752 21.0017 21.5762 16.3007 21.5762 10.5017C21.5762 4.70272 16.8752 0.00170898 11.0762 0.00170898C5.27718 0.00170898 0.576172 4.70272 0.576172 10.5017C0.576172 16.3007 5.27718 21.0017 11.0762 21.0017Z" fill="#4EB33D"/>
<path d="M19.8705 4.776L10.5845 14.3901L10.6009 15.4237H11.0275L21.0846 7.31898C20.7892 6.41665 20.3791 5.54711 19.8705 4.776Z" fill="#4EB33D"/>
<path d="M21.3796 4.31672L19.5257 2.4792C19.2796 2.23309 18.8694 2.23309 18.607 2.4792L10.6827 10.666L7.25374 7.28626C7.00763 7.04015 6.59748 7.04015 6.335 7.28626L4.69435 8.9105C4.44824 9.15661 4.44824 9.56676 4.69435 9.81287L10.1741 15.2433C10.3218 15.391 10.5186 15.4402 10.7155 15.4238C10.9124 15.4402 11.1092 15.391 11.2569 15.2433L21.3796 5.23546C21.6257 4.97294 21.6257 4.56279 21.3796 4.31672Z" fill="#F2F1EF"/>
<path d="M11.2566 15.2431L21.3793 5.23528C21.6254 4.98917 21.6254 4.57902 21.3793 4.33291L21.084 4.05402L10.6988 14.2588L4.95657 8.66421L4.71046 8.91032C4.46435 9.15643 4.46435 9.56658 4.71046 9.81269L10.1902 15.2432C10.3379 15.3909 10.5347 15.4401 10.7316 15.4236C10.9121 15.44 11.1089 15.3908 11.2566 15.2431Z" fill="#E6E5E3"/>
</g>
<defs>
<clipPath id="clip0">
<rect width="21" height="21" fill="white" transform="translate(0.576172 0.00170898)"/>
</clipPath>
</defs>
</svg>
