<svg width="23" height="23" viewBox="0 0 23 23" fill="none" xmlns="http://www.w3.org/2000/svg">
<path fill-rule="evenodd" clip-rule="evenodd" d="M5.80476 18.0804H6.15335L3.60545 2.30893H0.862305V0.245117H5.3533L6.23705 5.73141H22.841L21.4695 15.3324H7.78317L8.23072 18.0756H19.3413C19.3536 18.0757 19.3661 18.0756 19.3785 18.0756C20.5148 18.0756 21.4359 18.9967 21.4359 20.1329C21.4359 21.2692 20.5148 22.1903 19.3785 22.1903C18.2423 22.1903 17.3212 21.2692 17.3212 20.1329C17.3212 20.1237 17.3212 20.1145 17.3214 20.1053H7.71999C7.72011 20.1145 7.72017 20.1237 7.72017 20.1329C7.72017 21.2692 6.79906 22.1903 5.66281 22.1903C4.52656 22.1903 3.60545 21.2692 3.60545 20.1329C3.60545 18.9967 4.52656 18.0756 5.66281 18.0756C5.71052 18.0756 5.75785 18.0772 5.80476 18.0804ZM6.56787 7.79064L7.45438 13.2721H19.7488L20.5385 7.79064H6.56787Z" fill="#1A2F34"/>
</svg>
