<svg width="135" height="136" viewBox="0 0 135 136" fill="none" xmlns="http://www.w3.org/2000/svg">
<g opacity="0.25" clip-path="url(#clip0)">
<path d="M49.9576 29.454C51.4906 30.9987 53.9766 30.999 55.5098 29.454L61.0621 23.8603C62.5953 22.3156 62.5953 19.8113 61.0621 18.2666C59.5291 16.7219 57.0431 16.7219 55.5098 18.2666L49.9576 23.8603C48.4243 25.405 48.4243 27.9093 49.9576 29.454Z" fill="#1A2F34"/>
<path d="M111.035 74.2028L105.482 79.7965C103.949 81.3412 103.949 83.8455 105.482 85.3902C107.015 86.9349 109.501 86.9352 111.035 85.3902L116.587 79.7965C118.12 78.2518 118.12 75.7475 116.587 74.2028C115.054 72.6581 112.568 72.6581 111.035 74.2028Z" fill="#1A2F34"/>
<path d="M49.9579 1.48435L33.3008 18.2657C31.7676 19.8104 31.7676 22.3147 33.3008 23.8594C34.8338 25.4041 37.3198 25.4044 38.8531 23.8594L55.5101 7.07805C57.0434 5.53334 57.0434 3.02906 55.5101 1.48435C53.9769 -0.0606204 51.4909 -0.0606204 49.9579 1.48435Z" fill="#1A2F34"/>
<path d="M133.244 79.7967C131.711 78.2519 129.225 78.2519 127.692 79.7967L111.035 96.578C109.501 98.1227 109.501 100.627 111.035 102.172C112.568 103.716 115.054 103.717 116.587 102.172L133.244 85.3903C134.777 83.8456 134.777 81.3414 133.244 79.7967Z" fill="#1A2F34"/>
<path d="M2.65098 114.184C-0.9071 119.562 -0.197526 126.781 4.33841 131.351C8.87486 135.922 16.0413 136.635 21.3996 133.036L63.0739 104.643C71.4503 99.0168 75.1254 88.7845 72.682 79.2787L80.4962 71.4064L83.2725 74.2034C87.865 78.8296 95.3371 78.8299 99.9293 74.2034L111.034 63.0157C121.751 52.2186 121.747 34.652 111.034 23.8596C100.316 13.0619 82.8799 13.068 72.168 23.8596L61.0632 35.0472C56.4713 39.6737 56.4713 47.2019 61.0632 51.8283L63.8395 54.6253L56.0252 62.4978C46.5919 60.0365 36.431 63.7422 30.8635 72.1558L2.65098 114.184ZM88.8245 68.6094L66.6152 46.2344C65.0843 44.692 65.0843 42.1827 66.6152 40.6407L69.3915 37.8437L97.153 65.8124L94.3768 68.6094C92.8464 70.1518 90.3557 70.1518 88.8245 68.6094ZM80.7755 26.9377L107.979 54.3437C107.264 55.4319 106.432 56.4643 105.482 57.422L102.706 60.219L74.9437 32.25L77.72 29.453C78.6704 28.4955 79.6953 27.6575 80.7755 26.9377ZM105.482 29.453C110.013 34.0183 111.861 40.2786 111.026 46.227L88.8321 23.8672C94.7364 23.0266 100.95 24.888 105.482 29.453ZM69.3915 60.2187L74.9437 65.8124L69.1572 71.6421C68.4029 70.571 67.5546 69.5558 66.6152 68.6094C65.6758 67.663 64.6681 66.8084 63.6049 66.0484L69.3915 60.2187ZM37.3821 76.5655C42.7684 68.4251 54.1996 67.2883 61.0629 74.2031C67.9349 81.1264 66.7955 92.6354 58.6966 98.0754L17.0225 126.469C14.7886 127.969 11.7893 127.67 9.89067 125.758C7.99228 123.845 7.6952 120.823 9.1701 118.594L37.3821 76.5655Z" fill="#1A2F34"/>
<path d="M44.4088 96.5776L49.961 90.9839C51.4943 89.4392 51.4943 86.9349 49.961 85.3902C48.428 83.8455 45.942 83.8455 44.4088 85.3902L38.8565 90.9839C37.3232 92.5286 37.3232 95.0329 38.8565 96.5776C40.3892 98.122 42.8755 98.1225 44.4088 96.5776Z" fill="#1A2F34"/>
</g>
<defs>
<clipPath id="clip0">
<rect width="134" height="135" fill="white" transform="translate(0.392578 0.325439)"/>
</clipPath>
</defs>
</svg>
