<svg width="153" height="153" viewBox="0 0 153 153" fill="none" xmlns="http://www.w3.org/2000/svg">
<g opacity="0.25">
<path d="M31.1616 11.927H21.6616C21.0317 11.927 20.4276 12.1772 19.9822 12.6226C19.5368 13.068 19.2866 13.6721 19.2866 14.302V28.552C19.2866 29.1819 19.5368 29.786 19.9822 30.2314C20.4276 30.6768 21.0317 30.927 21.6616 30.927H31.1616C31.7915 30.927 32.3956 30.6768 32.841 30.2314C33.2864 29.786 33.5366 29.1819 33.5366 28.552V23.802H38.2866V38.052C33.8789 38.057 29.6532 39.8102 26.5365 42.9269C23.4198 46.0436 21.6666 50.2693 21.6616 54.677V144.927C21.6616 145.557 21.9118 146.161 22.3572 146.606C22.8026 147.052 23.4067 147.302 24.0366 147.302H71.5366C72.1665 147.302 72.7706 147.052 73.216 146.606C73.6614 146.161 73.9116 145.557 73.9116 144.927V54.677C73.9066 50.2693 72.1534 46.0436 69.0367 42.9269C65.92 39.8102 61.6943 38.057 57.2866 38.052V23.802H62.0366V26.177C62.0366 26.8069 62.2868 27.411 62.7322 27.8564C63.1776 28.3018 63.7817 28.552 64.4116 28.552H73.9116C74.5415 28.552 75.1456 28.3018 75.591 27.8564C76.0364 27.411 76.2866 26.8069 76.2866 26.177V16.677C76.2866 16.0471 76.0364 15.443 75.591 14.9976C75.1456 14.5522 74.5415 14.302 73.9116 14.302H64.4116C63.7817 14.302 63.1776 14.5522 62.7322 14.9976C62.2868 15.443 62.0366 16.0471 62.0366 16.677V19.052H57.2866V7.177C57.2866 6.54711 57.0364 5.94302 56.591 5.49762C56.1456 5.05222 55.5415 4.802 54.9116 4.802H40.6616C40.0317 4.802 39.4276 5.05222 38.9822 5.49762C38.5368 5.94302 38.2866 6.54711 38.2866 7.177V19.052H33.5366V14.302C33.5366 13.6721 33.2864 13.068 32.841 12.6226C32.3956 12.1772 31.7915 11.927 31.1616 11.927ZM28.7866 26.177H24.0366V16.677H28.7866V26.177ZM66.7866 19.052H71.5366V23.802H66.7866V19.052ZM43.0366 19.052H52.5366V23.802H43.0366V19.052ZM69.1616 128.302H26.4116V71.302H69.1616V128.302ZM26.4116 142.552V133.052H69.1616V142.552H26.4116ZM69.1616 54.677V66.552H26.4116V54.677C26.4154 51.5287 27.6677 48.5104 29.8939 46.2843C32.1201 44.0581 35.1383 42.8058 38.2866 42.802H57.2866C60.4349 42.8058 63.4532 44.0581 65.6794 46.2843C67.9055 48.5104 69.1578 51.5287 69.1616 54.677ZM43.0366 38.052V28.552H52.5366V38.052H43.0366ZM43.0366 9.552H52.5366V14.302H43.0366V9.552Z" fill="#1A2F34"/>
<path d="M47.7866 104.552C50.9349 104.548 53.9532 103.296 56.1794 101.07C58.4055 98.8435 59.6579 95.8253 59.6616 92.677C59.6616 84.602 50.2804 77.3298 49.2116 76.527C48.8005 76.2187 48.3005 76.052 47.7866 76.052C47.2727 76.052 46.7727 76.2187 46.3616 76.527C45.2929 77.3298 35.9116 84.602 35.9116 92.677C35.9154 95.8253 37.1677 98.8435 39.3939 101.07C41.6201 103.296 44.6383 104.548 47.7866 104.552ZM47.7866 81.4979C50.5915 83.9608 54.9116 88.6229 54.9116 92.677C54.9116 94.5667 54.161 96.3789 52.8248 97.7151C51.4886 99.0513 49.6763 99.802 47.7866 99.802C45.897 99.802 44.0847 99.0513 42.7485 97.7151C41.4123 96.3789 40.6616 94.5667 40.6616 92.677C40.6616 88.6205 44.9817 83.9608 47.7866 81.4979Z" fill="#1A2F34"/>
<path d="M102.412 128.302C105.56 128.298 108.578 127.046 110.804 124.82C113.031 122.594 114.283 119.575 114.287 116.427C114.287 108.352 104.905 101.08 103.837 100.277C103.426 99.9687 102.925 99.802 102.412 99.802C101.898 99.802 101.398 99.9687 100.987 100.277C99.9179 101.08 90.5366 108.352 90.5366 116.427C90.5404 119.575 91.7927 122.594 94.0189 124.82C96.2451 127.046 99.2633 128.298 102.412 128.302ZM102.412 105.248C105.216 107.711 109.537 112.373 109.537 116.427C109.537 118.317 108.786 120.129 107.45 121.465C106.114 122.801 104.301 123.552 102.412 123.552C100.522 123.552 98.7097 122.801 97.3735 121.465C96.0373 120.129 95.2866 118.317 95.2866 116.427C95.2866 112.371 99.6067 107.711 102.412 105.248Z" fill="#1A2F34"/>
<path d="M33.5366 109.302H62.0366V114.052H33.5366V109.302Z" fill="#1A2F34"/>
<path d="M33.5366 118.802H62.0366V123.552H33.5366V118.802Z" fill="#1A2F34"/>
<path d="M31.1616 54.677V61.802H35.9116V54.677C35.9116 54.0471 36.1618 53.443 36.6072 52.9976C37.0526 52.5522 37.6567 52.302 38.2866 52.302H47.7866V47.552H38.2866C36.397 47.552 34.5847 48.3027 33.2485 49.6389C31.9123 50.9751 31.1616 52.7873 31.1616 54.677Z" fill="#1A2F34"/>
<path d="M52.5366 47.552H57.2866V52.302H52.5366V47.552Z" fill="#1A2F34"/>
<path d="M78.6616 90.302V144.927C78.6616 145.557 78.9118 146.161 79.3572 146.606C79.8026 147.052 80.4067 147.302 81.0366 147.302H123.787C124.417 147.302 125.021 147.052 125.466 146.606C125.911 146.161 126.162 145.557 126.162 144.927V90.302C126.158 87.1537 124.906 84.1355 122.679 81.9093C120.453 79.6831 117.435 78.4308 114.287 78.427V73.677H121.412C122.042 73.677 122.646 73.4268 123.091 72.9814C123.536 72.536 123.787 71.9319 123.787 71.302V57.052C123.787 56.4221 123.536 55.818 123.091 55.3726C122.646 54.9272 122.042 54.677 121.412 54.677H113.766L111.912 47.2599V40.427C111.912 37.9074 110.911 35.4911 109.129 33.7095C107.348 31.9279 104.931 30.927 102.412 30.927C99.8921 30.927 97.4757 31.9279 95.6941 33.7095C93.9125 35.4911 92.9116 37.9074 92.9116 40.427V47.2599L91.0568 54.677H83.4116C82.7817 54.677 82.1776 54.9272 81.7322 55.3726C81.2868 55.818 81.0366 56.4221 81.0366 57.052V71.302C81.0366 71.9319 81.2868 72.536 81.7322 72.9814C82.1776 73.4268 82.7817 73.677 83.4116 73.677H90.5366V78.427C87.3883 78.4308 84.3701 79.6831 82.1439 81.9093C79.9177 84.1355 78.6654 87.1537 78.6616 90.302ZM121.412 133.052H83.4116V95.052H121.412V133.052ZM83.4116 142.552V137.802H121.412V142.552H83.4116ZM121.412 90.302H83.4116C83.4116 88.4123 84.1623 86.6001 85.4985 85.2639C86.8347 83.9277 88.647 83.177 90.5366 83.177H114.287C116.176 83.177 117.989 83.9277 119.325 85.2639C120.661 86.6001 121.412 88.4123 121.412 90.302ZM97.5904 48.1268C97.6379 47.9389 97.6618 47.7458 97.6616 47.552V40.427C97.6616 39.1672 98.1621 37.959 99.0529 37.0682C99.9437 36.1774 101.152 35.677 102.412 35.677C103.671 35.677 104.88 36.1774 105.77 37.0682C106.661 37.959 107.162 39.1672 107.162 40.427V47.552C107.161 47.7458 107.185 47.9389 107.233 48.1268L108.869 54.677H95.954L97.5904 48.1268ZM85.7866 59.427H90.5366V64.177H95.2866V59.427H100.037V64.177H104.787V59.427H109.537V64.177H114.287V59.427H119.037V68.927H85.7866V59.427ZM95.2866 73.677H109.537V78.427H95.2866V73.677Z" fill="#1A2F34"/>
</g>
</svg>
