<svg width="145" height="145" viewBox="0 0 145 145" fill="none" xmlns="http://www.w3.org/2000/svg">
<g opacity="0.25">
<g clip-path="url(#clip0)">
<path d="M136.527 17.9199C129.341 13.5371 119.633 11.221 108.449 11.221C91.3174 11.221 72.4419 16.6231 55.4911 26.0201L55.3723 25.9754C55.3723 25.9754 55.3553 26.0654 55.3462 26.1083C50.2151 28.9609 45.2433 32.1466 40.5733 35.7028C13.0651 56.6465 5.36143 81.4968 11.8608 94.7801C4.74635 106.935 0.363456 119.502 0.180664 134.386C13.8586 108.32 22.0681 87.1951 66.639 51.6324C53.9041 54.3617 31.893 67.3058 17.0892 86.9486C15.6924 75.4579 24.7715 56.9037 44.9941 41.508C47.5546 39.5582 50.2174 37.7358 52.9352 36.0066C50.8116 42.6054 51.4884 40.9641 47.0823 50.2165C53.5979 44.0498 57.8879 40.2444 64.3206 29.6756C72.6726 25.5731 81.3599 22.5068 89.9735 20.6536C88.5482 25.3786 85.8354 33.3861 82.1628 39.7168C82.1628 39.7168 91.484 37.7188 99.1877 38.1702C94.9785 42.8143 91.1916 47.8382 87.3509 52.9743C82.0914 60.0056 76.6544 67.2767 69.6918 74.0444C68.8537 74.8593 68.0529 75.5981 67.2403 76.3605C56.5414 75.3363 49.4745 79.3368 42.8537 86.4037C48.0754 83.9692 55.0899 81.9644 59.4869 83.1711C51.3838 89.7795 38.6231 98.4903 28.1378 97.7733C26.1494 100.799 26.0237 100.892 23.8381 104.548C40.8463 108.781 62.2088 91.4996 74.7797 79.2754C82.151 72.1066 87.7662 64.6024 93.1944 57.3477C104.373 42.4038 114.027 29.5005 135.442 24.5901L144.181 22.5876L136.527 17.9199Z" fill="#1A2F34"/>
</g>
</g>
<defs>
<clipPath id="clip0">
<rect width="144" height="144" fill="white" transform="translate(0.180664 0.803467)"/>
</clipPath>
</defs>
</svg>
