<svg width="144" height="144" viewBox="0 0 144 144" fill="none" xmlns="http://www.w3.org/2000/svg">
<g opacity="0.25">
<g clip-path="url(#clip0)">
<path d="M105.762 25.0286C101.204 26.6572 97.7727 30.4696 96.6306 35.1722C96.4823 35.7874 96.5859 36.4354 96.9164 36.9742C97.2469 37.5142 97.7782 37.8992 98.3934 38.0465C98.5766 38.089 98.7632 38.1098 98.9508 38.1109C100.053 38.1087 101.009 37.3516 101.266 36.2805C102.025 33.1498 104.307 30.6103 107.339 29.5228C108.536 29.0559 109.147 27.7251 108.721 26.5132C108.296 25.3013 106.987 24.6446 105.762 25.0286Z" fill="#1A2F34"/>
<path d="M98.6133 43.9272C97.2978 43.9272 96.231 44.9941 96.231 46.3107V72.3749C96.231 73.6915 97.2978 74.7583 98.6133 74.7583C99.93 74.7583 100.997 73.6915 100.997 72.3749V46.3107C100.997 44.9941 99.93 43.9272 98.6133 43.9272Z" fill="#1A2F34"/>
<path d="M98.6133 114.301C97.2978 114.301 96.231 115.367 96.231 116.683V121.895C96.231 123.211 97.2978 124.277 98.6133 124.277C99.93 124.277 100.997 123.211 100.997 121.895V116.683C100.997 115.367 99.93 114.301 98.6133 114.301Z" fill="#1A2F34"/>
<path d="M136.74 129.043H134.356V38.4916C134.342 29.0232 128.733 20.4591 120.059 16.662V9.89666C120.081 4.83632 116.136 0.646463 111.085 0.363939C106.032 0.0814151 101.645 3.80549 101.102 8.83638L100.102 8.03572C99.2305 7.33868 97.9935 7.33868 97.1231 8.03572L86.698 16.3784L76.2719 8.0379C75.4014 7.34086 74.1644 7.34086 73.294 8.0379L62.8679 16.3784L52.4428 8.0379C51.5724 7.34086 50.3343 7.34086 49.4638 8.0379L39.0388 16.3784L28.6137 8.0379C27.7422 7.34086 26.5052 7.34086 25.6347 8.0379L15.2097 16.3784L4.78356 8.0379C4.06907 7.46522 3.08951 7.35286 2.26376 7.74992C1.438 8.14589 0.912224 8.98037 0.911133 9.89666V109.98C0.911133 110.704 1.23947 111.389 1.80561 111.841L13.7196 121.373C14.5901 122.07 15.8282 122.07 16.6987 121.373L27.1237 113.03L37.5498 121.37C38.4203 122.067 39.6573 122.067 40.5277 121.37L50.9539 113.03L61.3789 121.37C62.2494 122.067 63.4864 122.067 64.3579 121.37L74.7829 113.03L85.208 121.37C85.6301 121.71 86.1559 121.894 86.698 121.895V129.043H84.3146C80.3669 129.043 77.1653 132.245 77.1653 136.192C77.1653 140.141 80.3669 143.342 84.3146 143.342H136.74C140.687 143.342 143.888 140.141 143.888 136.192C143.888 132.245 140.687 129.043 136.74 129.043ZM76.2719 108.119C75.4014 107.422 74.1644 107.422 73.294 108.119L62.8679 116.462L52.4428 108.121C51.5724 107.424 50.3343 107.424 49.4638 108.121L39.0388 116.462L28.6137 108.121C27.7422 107.424 26.5052 107.424 25.6347 108.121L15.2097 116.462L5.67695 108.837V102.832H15.2097C16.5252 102.832 17.592 101.765 17.592 100.448C17.592 99.1328 16.5252 98.0659 15.2097 98.0659H5.67695V31.3434H22.3579C23.6745 31.3434 24.7413 30.2766 24.7413 28.9599C24.7413 27.6444 23.6745 26.5776 22.3579 26.5776H5.67695V14.8556L13.7196 21.2893C14.5901 21.9863 15.8282 21.9863 16.6987 21.2893L27.1237 12.9466L37.5498 21.2871C38.4203 21.9841 39.6573 21.9841 40.5277 21.2871L50.9539 12.9466L61.3789 21.2871C62.2494 21.9841 63.4864 21.9841 64.3579 21.2871L74.7829 12.9466L85.208 21.2871C86.0784 21.9841 87.3165 21.9841 88.187 21.2871L98.612 12.9466L100.995 14.8534V16.662C96.2951 18.728 92.3932 22.2634 89.8745 26.7368C89.6204 26.6387 89.352 26.5841 89.0804 26.5776H77.1653C75.8498 26.5776 74.7829 27.6444 74.7829 28.9599C74.7829 30.2766 75.8498 31.3434 77.1653 31.3434H87.815C87.0798 33.6549 86.7024 36.0656 86.698 38.4916V98.0659H79.5488C78.2321 98.0659 77.1653 99.1328 77.1653 100.448C77.1653 101.765 78.2321 102.832 79.5488 102.832H86.698V116.462L76.2719 108.119ZM91.4639 38.4916C91.4682 30.4184 96.558 23.2244 104.17 20.5311C105.123 20.1962 105.761 19.2952 105.761 18.284V9.89666C105.761 7.2645 107.895 5.13085 110.527 5.13085C113.159 5.13085 115.293 7.2645 115.293 9.89666V18.284C115.293 19.2952 115.931 20.1962 116.884 20.5311C124.492 23.2298 129.579 30.4206 129.59 38.4916V129.043H91.4639V38.4916ZM136.74 138.576H84.3146C82.999 138.576 81.9311 137.509 81.9311 136.192C81.9311 134.877 82.999 133.81 84.3146 133.81H136.74C138.055 133.81 139.122 134.877 139.122 136.192C139.122 137.509 138.055 138.576 136.74 138.576Z" fill="#1A2F34"/>
<path d="M34.803 46.1699C37.193 43.7744 40.0248 41.8655 43.1434 40.551C49.6709 37.8196 57.0209 37.8196 63.5484 40.551C69.8316 43.217 74.833 48.2196 77.4979 54.5027C77.8295 55.287 78.5549 55.8346 79.4003 55.9382C80.2457 56.043 81.0813 55.6895 81.5951 55.0099C82.1077 54.3304 82.219 53.4282 81.8874 52.6439C78.7371 45.2209 72.8281 39.3108 65.405 36.1616C57.6907 32.9273 49.0012 32.9273 41.2869 36.1616C37.6053 37.7149 34.2609 39.9696 31.44 42.8003C30.5379 43.7352 30.5499 45.222 31.4694 46.1404C32.389 47.06 33.8747 47.0731 34.8095 46.1699H34.803Z" fill="#1A2F34"/>
<path d="M43.1332 88.8572C33.4237 84.7601 27.1155 75.2426 27.1242 64.7041C27.1242 63.3886 26.0574 62.3218 24.7419 62.3218C23.4252 62.3218 22.3584 63.3886 22.3584 64.7041C22.366 77.1537 29.8153 88.3925 41.2788 93.2467C41.8613 93.4932 42.5179 93.4965 43.1026 93.2587C43.6884 93.0209 44.1553 92.5595 44.4007 91.977C44.9112 90.765 44.344 89.3699 43.1332 88.8572Z" fill="#1A2F34"/>
<path d="M80.6141 73.6401C80.0327 73.3936 79.3761 73.3881 78.7903 73.6259C78.2045 73.8626 77.7365 74.3229 77.49 74.9054C73.3951 84.6171 63.8765 90.9264 53.337 90.9166C52.0214 90.9166 50.9546 91.9834 50.9546 93.2989C50.9546 94.6156 52.0214 95.6824 53.337 95.6824C65.7855 95.6748 77.0231 88.2255 81.8795 76.7642C82.126 76.1817 82.1315 75.5261 81.8948 74.9403C81.657 74.3546 81.1966 73.8866 80.6141 73.6401Z" fill="#1A2F34"/>
<path d="M53.3375 52.789C54.6541 52.789 55.7209 51.7222 55.7209 50.4066C55.7209 49.09 54.6541 48.0232 53.3375 48.0232C47.7437 48.0221 42.523 50.8244 39.4316 55.4866C36.3402 60.1477 35.7915 66.048 37.9699 71.2C38.343 72.0814 39.208 72.654 40.1646 72.654C40.9642 72.654 41.7103 72.2537 42.151 71.5872C42.5928 70.9207 42.6714 70.0775 42.3594 69.3412C40.8049 65.6618 41.1976 61.448 43.4055 58.1188C45.6133 54.7896 49.3428 52.7879 53.3375 52.789Z" fill="#1A2F34"/>
<path d="M59.8308 80.0716C68.3142 76.4806 72.2859 66.6959 68.7047 58.2082C68.3731 57.4239 67.6477 56.8763 66.8023 56.7726C65.958 56.6679 65.1213 57.0224 64.6075 57.702C64.0949 58.3816 63.9836 59.2826 64.3152 60.0669C66.871 66.1297 64.0338 73.1176 57.9742 75.6821C55.0083 76.9267 51.666 76.9267 48.7 75.6821C47.4903 75.1803 46.1028 75.7486 45.5923 76.9551C45.0829 78.1615 45.6414 79.5534 46.8434 80.0716C50.9962 81.8224 55.6791 81.8224 59.8308 80.0716Z" fill="#1A2F34"/>
<path d="M27.1242 100.448C27.1242 101.765 26.0574 102.832 24.7419 102.832C23.4252 102.832 22.3584 101.765 22.3584 100.448C22.3584 99.1326 23.4252 98.0658 24.7419 98.0658C26.0574 98.0658 27.1242 99.1326 27.1242 100.448Z" fill="#1A2F34"/>
</g>
</g>
<defs>
<clipPath id="clip0">
<rect width="142.993" height="142.993" fill="white" transform="translate(0.896484 0.348633)"/>
</clipPath>
</defs>
</svg>
