<svg width="127" height="127" viewBox="0 0 127 127" fill="none" xmlns="http://www.w3.org/2000/svg">
<g opacity="0.25" clip-path="url(#clip0)">
<path d="M125.381 9.36856L124.479 7.56277C124.138 7.73427 118.854 10.4621 114.542 16.3496C116.197 8.34763 118.892 4.57261 118.927 4.52419L115.696 2.10503C115.442 2.44198 109.71 10.333 109.28 27.5274H109.24V1.29797H105.205V27.5274H105.162C104.733 10.333 99.0025 2.444 98.7482 2.10503L95.52 4.52621C95.5583 4.57867 98.2701 8.30728 99.9225 16.3779C95.6068 10.4742 90.3084 7.73628 89.9654 7.56478L88.1596 11.1744C88.2726 11.2288 99.2769 16.8762 101.167 29.7286V96.1273C101.167 106.141 93.0222 114.286 83.0086 114.286C72.995 114.286 64.8498 106.141 64.8498 96.1273V67.8803H60.8145V74.5345C59.1762 75.1398 57.8243 75.737 56.7792 76.2798V60.7923C57.445 60.3262 58.7262 59.5575 60.8145 58.6859V63.845H64.8498V31.5627C64.8498 26.8656 63.7441 22.4328 61.8253 18.4621L61.8516 18.4177C61.8294 18.4036 61.8072 18.3935 61.785 18.3794C56.876 8.2871 46.5477 1.29797 34.5871 1.29797C17.8991 1.29797 4.3224 14.8727 4.3224 31.5627V57.7921H0.287109V116.304C0.287109 121.866 4.81269 126.392 10.3753 126.392C15.938 126.392 20.4636 121.866 20.4636 116.304V57.7921H16.4283V31.5627C16.4283 21.5491 24.5735 13.4039 34.5871 13.4039C44.6007 13.4039 52.7459 21.5491 52.7459 31.5627V96.1273C52.7459 112.815 66.3227 126.392 83.0106 126.392C99.6986 126.392 113.275 112.815 113.275 96.1273V29.7286C115.158 16.9468 126.176 11.2288 126.287 11.1723L125.381 9.36856ZM8.35769 31.5627C8.35769 30.2653 8.48481 28.9982 8.66639 27.7513C9.93146 29.9768 11.3236 31.4013 12.393 32.2628V44.7904C10.3047 43.9187 9.02352 43.15 8.35769 42.6839V31.5627ZM8.35769 47.375C9.40284 47.9177 10.7547 48.5149 12.393 49.1202V57.7921H8.35769V47.375ZM16.4283 116.304C16.4283 119.641 13.7125 122.357 10.3753 122.357C7.03815 122.357 4.3224 119.641 4.3224 116.304V69.8979H16.4283V116.304ZM16.4283 65.8626H4.3224V61.8274H16.4283V65.8626ZM18.6477 16.1559C15.8109 19.0896 13.771 22.792 12.8893 26.9261C12.0016 25.655 11.0896 23.8593 10.4217 21.3695C12.3486 16.8197 15.5345 12.9378 19.5254 10.1252C18.6537 12.7643 18.5508 14.8122 18.6477 16.1559ZM60.8165 54.358C59.1782 54.9633 57.8263 55.5606 56.7812 56.1033V40.6158C57.447 40.1498 58.7282 39.381 60.8165 38.5094V54.358ZM34.0524 9.39479C30.0091 9.49164 26.2401 10.676 23.0058 12.6654C23.3629 11.1582 24.0711 9.25759 25.3947 7.02809C28.2598 5.95067 31.3488 5.33327 34.5871 5.33327C35.9773 5.33327 37.3311 5.4745 38.6627 5.68232C36.2214 7.01598 34.803 8.43842 34.0524 9.39479ZM49.5257 15.1975C46.7273 12.6412 43.2832 10.787 39.4597 9.92543C40.6985 9.09012 42.4842 8.19429 44.982 7.49215C49.092 9.27373 52.641 12.0863 55.3446 15.589C52.5583 14.8626 50.5588 15.0099 49.5257 15.1975ZM58.7282 21.315C60.072 24.4646 60.8165 27.9289 60.8165 31.5627V34.1816C59.1782 34.7869 57.8263 35.3841 56.7812 35.9268V31.5627C56.7812 27.0109 55.3991 22.7778 53.0405 19.251C54.4791 19.477 56.3999 20.0621 58.7282 21.315ZM56.7812 96.1273V80.9688C57.447 80.5027 58.7282 79.734 60.8165 78.8624V95.064C59.844 95.8328 58.4054 97.2814 57.0657 99.7753C56.8982 98.5808 56.7812 97.3682 56.7812 96.1273ZM58.8432 106.321C59.5292 103.742 60.4271 101.896 61.2705 100.605C62.0816 104.553 63.964 108.104 66.5749 110.987C66.4215 112.208 66.4114 114.276 67.2387 117.034C63.5827 114.27 60.6531 110.594 58.8432 106.321ZM83.0106 122.357C79.516 122.357 76.1849 121.657 73.1342 120.41C71.7925 118.091 71.1206 116.157 70.8099 114.645C74.024 116.77 77.8192 118.061 81.9029 118.263C82.6595 119.237 84.1203 120.706 86.6605 122.07C85.4641 122.24 84.2515 122.357 83.0106 122.357ZM93.2038 120.295C90.6252 119.609 88.7791 118.711 87.4878 117.867C91.4403 117.054 94.9954 115.17 97.8786 112.557C98.264 112.605 98.7059 112.646 99.2567 112.646C100.447 112.646 102.023 112.466 103.917 111.897C101.153 115.553 97.4791 118.485 93.2038 120.295ZM109.24 96.1273C109.24 99.6219 108.54 102.953 107.293 106.004C104.977 107.343 103.04 108.015 101.531 108.326C103.847 104.823 105.205 100.633 105.205 96.1273V93.5064C106.843 92.9011 108.195 92.3039 109.24 91.7612V96.1273ZM109.24 87.0742C108.574 87.5402 107.293 88.309 105.205 89.1806V73.332C106.843 72.7267 108.195 72.1295 109.24 71.5867V87.0742ZM109.24 66.8977C108.574 67.3638 107.293 68.1325 105.205 69.0041V53.1555C106.843 52.5502 108.195 51.953 109.24 51.4103V66.8977ZM109.24 46.7212C108.574 47.1873 107.293 47.956 105.205 48.8277V31.5627H109.24V46.7212Z" fill="#1A2F34"/>
</g>
<defs>
<clipPath id="clip0">
<rect width="126" height="126" fill="white" transform="translate(0.287109 0.844971)"/>
</clipPath>
</defs>
</svg>
