<svg width="131" height="131" viewBox="0 0 131 131" fill="none" xmlns="http://www.w3.org/2000/svg">
<g opacity="0.25">
<g clip-path="url(#clip0)">
<path d="M88.0291 87.6757C78.2316 87.6757 70.2607 95.6465 70.2607 105.444V113.059C70.2607 114.461 71.3974 115.597 72.7991 115.597H80.4141C90.2115 115.597 98.1824 107.626 98.1824 97.829V90.214C98.1824 88.8121 97.0458 87.6757 95.6441 87.6757H88.0291ZM93.1057 97.829C93.1057 104.827 87.4123 110.521 80.4141 110.521H75.3374V105.444C75.3374 98.4458 81.0309 92.7523 88.0291 92.7523H93.1057V97.829Z" fill="#1A2F34"/>
<path d="M34.7244 87.6757C33.3224 87.6757 32.186 88.8121 32.186 90.214V97.829C32.186 107.626 40.1569 115.597 49.9544 115.597H57.5694C58.9713 115.597 60.1077 114.461 60.1077 113.059V105.444C60.1077 95.6465 52.1368 87.6757 42.3394 87.6757H34.7244ZM55.0311 105.444V110.521H49.9544C42.9562 110.521 37.2627 104.827 37.2627 97.829V92.7523H42.3394C49.3376 92.7523 55.0311 98.4458 55.0311 105.444Z" fill="#1A2F34"/>
<path d="M82.3991 51.2335C77.0178 49.1381 71.2416 48.0776 65.1856 48.0776C59.2383 48.0776 53.5557 49.102 48.2499 51.1266C46.3311 44.399 43.1151 36.7078 39.6982 30.7889C27.8195 10.2155 5.23141 1.39706 4.27573 1.03179C3.56144 0.758667 2.76237 0.822125 2.10037 1.20465C1.43812 1.58693 0.983505 2.2474 0.862934 3.0023C0.701496 4.01256 -2.95523 27.9838 8.92316 48.5576C13.2736 56.0918 20.4048 63.915 26.1844 69.26C21.0772 77.3811 17.7921 88.6696 17.0938 100.663C15.6355 115.244 25.7188 127.675 38.7613 130.271C44.2642 131.365 49.8376 130.832 54.8767 128.737C61.4279 126.014 68.9426 126.014 75.4938 128.737C80.5375 130.834 86.1106 131.365 91.6102 130.271C104.625 127.68 114.738 115.275 113.277 100.664C112.584 88.7612 109.345 77.5456 104.314 69.46C108.086 66.0264 111.425 62.556 114.26 59.1221C115.152 58.041 114.999 56.4411 113.918 55.5486C112.837 54.6562 111.237 54.8095 110.345 55.8903C107.275 59.6087 103.563 63.3878 99.313 67.1224C98.3398 67.9776 98.1667 69.428 98.9112 70.4883C104.133 77.9228 107.523 89.0478 108.212 101.011C108.214 101.049 108.217 101.086 108.221 101.123C109.437 113.032 101.146 123.197 90.6195 125.292C86.1091 126.188 81.5536 125.759 77.4425 124.049C69.6528 120.812 60.7176 120.812 52.9277 124.049C48.8169 125.759 44.2609 126.189 39.752 125.292C29.4367 123.239 20.912 113.242 22.1499 101.123C22.1537 101.086 22.1568 101.049 22.1588 101.011C22.852 88.9653 26.2866 77.7773 31.5816 70.3157C32.3327 69.2574 32.1644 67.803 31.1915 66.9437C25.4815 61.9026 17.7878 53.7583 13.3193 46.0195C4.83924 31.3311 5.00524 14.2283 5.53017 7.14055C11.9278 10.2201 26.8009 18.6044 35.3013 33.3273C38.9362 39.6239 42.4584 48.4075 44.0662 55.1844C44.4352 56.7404 46.1387 57.5747 47.5965 56.9046C53.0082 54.416 58.9258 53.1542 65.1854 53.1542C71.5612 53.1542 77.5752 54.461 83.0596 57.0381C84.5224 57.725 86.2411 56.8876 86.6097 55.3232C88.5264 47.1937 91.1152 40.2717 94.3049 34.7488C102.773 20.08 118.254 10.8485 125.013 7.34184C125.196 13.1551 124.954 25.0378 121.003 36.8464C120.558 38.176 121.275 39.6142 122.605 40.0592C123.935 40.5037 125.372 39.7868 125.817 38.4575C131.679 20.9384 129.925 3.84985 129.847 3.131C129.761 2.33218 129.302 1.62119 128.609 1.2143C127.916 0.807657 127.072 0.753082 126.331 1.06682C125.334 1.49047 101.762 11.6791 89.9087 32.2104C86.8671 37.4767 84.3457 43.8654 82.3991 51.2335Z" fill="#1A2F34"/>
<path d="M118.743 50.6159C120.145 50.6159 121.282 49.4795 121.282 48.0776C121.282 46.6757 120.145 45.5393 118.743 45.5393C117.342 45.5393 116.205 46.6757 116.205 48.0776C116.205 49.4795 117.342 50.6159 118.743 50.6159Z" fill="#1A2F34"/>
</g>
</g>
<defs>
<clipPath id="clip0">
<rect width="129.961" height="129.961" fill="white" transform="translate(0.199219 0.864502)"/>
</clipPath>
</defs>
</svg>
