<svg width="141" height="142" viewBox="0 0 141 142" fill="none" xmlns="http://www.w3.org/2000/svg">
<g opacity="0.25">
<g clip-path="url(#clip0)">
<path d="M81.1082 91.6765C79.5919 91.6765 78.3628 92.9183 78.3628 94.4346C78.3628 95.9509 79.5919 97.18 81.1082 97.18C82.6245 97.18 83.8536 95.9509 83.8536 94.4346V94.4093C83.8536 92.8933 82.6245 91.6765 81.1082 91.6765Z" fill="#1A2F34"/>
<path d="M137.93 8.23718H105.534C104.018 8.23718 102.789 9.46631 102.789 10.9826V21.863C102.789 23.3793 104.018 24.6084 105.534 24.6084H111.149L103.808 31.9488C97.0483 27.5512 89.2497 25.2387 81.1087 25.2387C79.2385 25.2387 77.3634 25.3713 75.5179 25.6184C67.9183 15.2479 55.6537 8.50019 41.8407 8.50019C18.8305 8.50019 0.110352 27.2204 0.110352 50.2306C0.110352 60.1426 3.64618 69.7499 10.0669 77.2831C15.9067 84.1348 23.8066 88.916 32.5063 90.9089V107.335H24.27C22.7537 107.335 21.5246 108.564 21.5246 110.081V122.161C21.5246 123.677 22.7537 124.906 24.27 124.906H32.5063V131.495C32.5063 133.011 33.7354 134.24 35.2517 134.24H48.4297C49.946 134.24 51.1751 133.011 51.1751 131.495V124.906H59.4114C60.9277 124.906 62.1568 123.677 62.1568 122.161V110.081C62.1568 108.564 60.9277 107.335 59.4114 107.335H51.1751V96.0434C58.9669 104.067 69.7171 108.699 81.1087 108.699C104.119 108.699 122.839 89.9793 122.839 66.9691C122.839 59.2869 120.761 51.8605 116.808 45.3508L124.301 37.8581V43.3728C124.301 44.8891 125.53 46.1182 127.046 46.1182H137.93C139.447 46.1182 140.676 44.8891 140.676 43.3728V10.9826C140.676 9.46631 139.447 8.23718 137.93 8.23718ZM47.969 85.9517C46.6496 86.1763 45.6843 87.3198 45.6843 88.6582V110.081C45.6843 111.597 46.9134 112.826 48.4297 112.826H56.666V119.415H48.4297C46.9134 119.415 45.6843 120.644 45.6843 122.161V128.75H37.9971V122.161C37.9971 120.644 36.768 119.415 35.2517 119.415H27.0155V112.826H35.2517C36.768 112.826 37.9971 111.597 37.9971 110.081V88.6582C37.9971 87.3198 37.0318 86.1763 35.7124 85.9517C18.2647 82.9815 5.60119 67.9585 5.60119 50.2306C5.60119 30.248 21.8582 13.991 41.8407 13.991C61.8232 13.991 78.0802 30.248 78.0802 50.2306C78.0802 67.9588 65.4167 82.9818 47.969 85.9517ZM135.185 40.6274H129.792V31.2301C129.792 30.1198 129.123 29.1186 128.097 28.6936C127.071 28.2686 125.89 28.5036 125.105 29.2885L111.359 43.0345C110.425 43.9688 110.288 45.4362 111.035 46.5267C115.165 52.5609 117.349 59.6298 117.349 66.9688C117.349 86.9514 101.092 103.208 81.109 103.208C70.3557 103.208 60.2603 98.4547 53.4066 90.3299C55.4964 89.7267 57.5313 88.9604 59.4943 88.0424C63.0771 91.716 67.5178 94.4186 72.4271 95.8899C72.6899 95.9687 72.9554 96.006 73.2165 96.006C74.3975 96.006 75.4888 95.2376 75.8452 94.048C76.2803 92.5957 75.4559 91.0654 74.0036 90.6299C70.4727 89.5719 67.2364 87.7338 64.5124 85.2605C67.892 83.0715 70.966 80.3909 73.6154 77.2828C80.0352 69.7499 83.5711 60.1423 83.5711 50.2306C83.5711 47.5225 83.3086 44.8748 82.8136 42.3089C95.6457 43.1877 105.818 53.9067 105.818 66.9578C105.818 77.7899 98.5789 87.5246 88.2141 90.6305C86.7615 91.0656 85.9371 92.5959 86.3725 94.0485C86.7289 95.2381 87.8199 96.0066 89.0012 96.0066C89.2621 96.0066 89.5275 95.969 89.7905 95.8904C95.884 94.0645 101.362 90.2502 105.217 85.1501C109.202 79.8761 111.309 73.5853 111.309 66.9581C111.309 50.3832 97.8862 36.8862 81.3401 36.7613C80.6354 34.7003 79.7722 32.7126 78.7677 30.8103C79.5471 30.7606 80.3287 30.7296 81.1093 30.7296C88.8681 30.7296 96.2681 33.1477 102.509 37.7224C103.602 38.5233 105.115 38.4074 106.073 37.4495L119.718 23.8045C120.504 23.0193 120.738 21.8383 120.313 20.8126C119.888 19.7866 118.887 19.1178 117.777 19.1178H108.28V13.728H135.185V40.6274Z" fill="#1A2F34"/>
<path d="M24.3127 28.8726C23.2302 27.8233 21.505 27.8437 20.4477 28.9149C20.4379 28.9248 20.4255 28.9374 20.4175 28.9457C19.3619 30.0342 19.3888 31.7723 20.4774 32.828C21.0105 33.3446 21.6996 33.6022 22.3882 33.6022C23.0982 33.6022 23.8073 33.3284 24.344 32.784C24.3534 32.7744 24.3649 32.7626 24.3726 32.7549C25.4282 31.6664 25.4013 29.9282 24.3127 28.8726Z" fill="#1A2F34"/>
<path d="M41.8407 20.031C37.3443 20.031 33.0164 20.9963 28.9773 22.9002C27.6057 23.5468 27.0179 25.1825 27.6645 26.5541C28.311 27.9255 29.9467 28.5133 31.3183 27.867C34.6197 26.3109 38.1597 25.5218 41.8407 25.5218C48.2197 25.5218 54.0416 27.9518 58.4302 31.9346C46.6095 39.5962 39.3783 52.7646 39.3783 66.9692C39.3783 69.6344 39.635 72.2826 40.1331 74.8793C27.3024 73.9991 17.1319 63.281 17.1319 50.2306C17.1319 46.7563 17.8378 43.3984 19.2297 40.2502C19.8428 38.8635 19.2157 37.242 17.829 36.629C16.4423 36.0159 14.8209 36.643 14.2078 38.0297C12.5048 41.8818 11.6411 45.9867 11.6411 50.2306C11.6411 66.8827 25.1887 80.4302 41.8407 80.4302C58.4928 80.4302 72.0403 66.8827 72.0403 50.2306C72.0403 33.5786 58.4928 20.031 41.8407 20.031ZM45.6865 74.6393C45.1465 72.1305 44.8689 69.5595 44.8689 66.9689C44.8692 54.3603 51.4327 42.6942 62.1055 36.1107C63.2555 37.7563 64.2101 39.5476 64.9363 41.451C56.2575 46.968 50.9091 56.6423 50.9091 66.9579C50.9091 68.9824 51.1136 70.9972 51.5112 72.9671C49.6726 73.752 47.7203 74.32 45.6865 74.6393ZM56.5913 70.0413C56.4645 69.0216 56.3999 67.9916 56.3999 66.9579C56.3999 59.1392 60.1573 51.7719 66.3565 47.1395C66.4833 48.1523 66.5495 49.1838 66.5495 50.2303C66.5495 58.3304 62.6315 65.5322 56.5913 70.0413Z" fill="#1A2F34"/>
</g>
</g>
<defs>
<clipPath id="clip0">
<rect width="140.565" height="140.565" fill="white" transform="translate(0.110352 0.956299)"/>
</clipPath>
</defs>
</svg>
