<svg width="14" height="14" viewBox="0 0 14 14" fill="none" xmlns="http://www.w3.org/2000/svg">
<g opacity="0.6">
<path opacity="0.6" d="M12.7554 1.83712C12.8623 1.73054 12.9472 1.6039 13.0051 1.46445C13.063 1.32501 13.0928 1.1755 13.0928 1.02452C13.0928 0.873529 13.063 0.724026 13.0051 0.584582C12.9472 0.445138 12.8623 0.318495 12.7554 0.211916C12.6698 0.141365 12.5623 0.102783 12.4514 0.102783C12.3404 0.102783 12.2329 0.141365 12.1473 0.211916L6.875 5.48713L2.10933 0.722421C2.00276 0.615471 1.87611 0.530612 1.73667 0.472711C1.59722 0.414809 1.44772 0.385004 1.29673 0.385004C1.14575 0.385004 0.996243 0.414809 0.856799 0.472711C0.717355 0.530612 0.590712 0.615471 0.484133 0.722421C0.413582 0.808024 0.375 0.9155 0.375 1.02643C0.375 1.13736 0.413582 1.24483 0.484133 1.33044L5.75935 6.60278L0.994637 11.3684C0.887688 11.475 0.802829 11.6017 0.744927 11.7411C0.687026 11.8806 0.65722 12.0301 0.65722 12.181C0.65722 12.332 0.687026 12.4815 0.744927 12.621C0.802829 12.7604 0.887688 12.8871 0.994637 12.9937C1.08024 13.0642 1.18772 13.1028 1.29865 13.1028C1.40958 13.1028 1.51705 13.0642 1.60265 12.9937L6.875 7.71844L11.6407 12.4841C11.7472 12.5911 11.8739 12.6759 12.0133 12.7338C12.1528 12.7917 12.3023 12.8215 12.4533 12.8215C12.6043 12.8215 12.7538 12.7917 12.8932 12.7338C13.0326 12.6759 13.1593 12.5911 13.2659 12.4841C13.3364 12.3985 13.375 12.291 13.375 12.1801C13.375 12.0692 13.3364 11.9617 13.2659 11.8761L7.99065 6.60278L12.7554 1.83712Z" fill="#151515"/>
</g>
</svg>
