<svg width="21" height="21" viewBox="0 0 21 21" fill="none" xmlns="http://www.w3.org/2000/svg">
<path fill-rule="evenodd" clip-rule="evenodd" d="M20.1823 9.58217L20.3848 9.83789L20.1823 10.0936C20.0035 10.316 15.7685 16.1309 10.3848 16.1309C5.00227 16.1309 0.766016 10.316 0.587266 10.0936L0.384766 9.83789L0.587266 9.58217C0.766016 9.3598 5.00227 4.13086 10.3848 4.13086C15.7698 4.13086 20.0035 9.3598 20.1823 9.58217ZM2.33774 9.87004C5.09847 13.0506 7.78081 14.641 10.3848 14.641C12.9887 14.641 15.6726 13.0506 18.4363 9.87004C15.7014 7.04761 13.0175 5.63639 10.3848 5.63639C7.752 5.63639 5.06966 7.04761 2.33774 9.87004ZM10.3848 13.1309C8.72791 13.1309 7.38477 11.7877 7.38477 10.1309C7.38477 8.47401 8.72791 7.13086 10.3848 7.13086C12.0416 7.13086 13.3848 8.47401 13.3848 10.1309C13.3848 11.7877 12.0416 13.1309 10.3848 13.1309ZM10.3848 11.6309C11.2132 11.6309 11.8848 10.9593 11.8848 10.1309C11.8848 9.30243 11.2132 8.63086 10.3848 8.63086C9.55634 8.63086 8.88477 9.30243 8.88477 10.1309C8.88477 10.9593 9.55634 11.6309 10.3848 11.6309Z" fill="#777777"/>
</svg>
