<svg width="22" height="24" viewBox="0 0 22 24" fill="none" xmlns="http://www.w3.org/2000/svg">
<path fill-rule="evenodd" clip-rule="evenodd" d="M19.8 0.258789H2.2C0.984973 0.258789 0 1.28853 0 2.55879V20.9588C0 22.229 0.984973 23.2588 2.2 23.2588L11 23.2588V14.6H7.7V11.3529H11V9.60924C11 6.30807 12.6386 4.8588 15.3175 4.8588C16.5752 4.8588 17.2519 4.95243 17.5807 4.99792L17.6 5.00059V8.10586H15.7729C14.6359 8.10586 14.3 8.72063 14.3 9.96534V11.3529H17.5715L17.1192 14.6H14.3V23.2588L19.8 23.2588C21.015 23.2588 22 22.229 22 20.9588V2.55879C22 1.28853 21.015 0.258789 19.8 0.258789Z" fill="#999999"/>
</svg>
