<svg width="26" height="26" viewBox="0 0 26 26" fill="none" xmlns="http://www.w3.org/2000/svg">
<path d="M20.2541 25.4632C20.1468 25.4632 20.0387 25.4411 19.9375 25.3962L12.7415 22.1924L5.54535 25.3962C5.27905 25.5143 4.96863 25.4731 4.74189 25.2917C4.5144 25.1096 4.40788 24.8154 4.46495 24.5297L6.05207 16.5789L0.503956 11.021C0.30081 10.8175 0.226246 10.5188 0.309179 10.2429C0.392112 9.96783 0.620366 9.76054 0.90188 9.70415L8.85428 8.11064L12.0293 0.954693C12.2804 0.390753 13.2025 0.390753 13.4536 0.954693L16.6286 8.11064L24.581 9.70415C24.8625 9.76054 25.0908 9.96783 25.1737 10.2429C25.2567 10.5188 25.1821 10.8175 24.979 11.021L19.4308 16.5789L21.018 24.5297C21.075 24.8154 20.9685 25.1096 20.741 25.2917C20.6003 25.4045 20.4275 25.4632 20.2541 25.4632H20.2541ZM12.7414 20.5577C12.8495 20.5577 12.9575 20.5798 13.058 20.6248L19.195 23.3576L17.8209 16.4752C17.7699 16.2192 17.8498 15.9547 18.0339 15.7703L22.8478 10.9486L15.9279 9.56163C15.6798 9.51209 15.4714 9.3452 15.3687 9.11352L12.7414 3.19292L10.1142 9.11352C10.0115 9.3452 9.80304 9.51209 9.555 9.56163L2.63508 10.9486L7.44898 15.7703C7.6331 15.9547 7.71299 16.2192 7.66202 16.4752L6.28792 23.3576L12.4249 20.6248C12.5254 20.5798 12.6334 20.5577 12.7414 20.5577H12.7414Z" fill="#1A2F34"/>
</svg>
