<svg width="21" height="21" viewBox="0 0 21 21" fill="none" xmlns="http://www.w3.org/2000/svg">
<g>
<path d="M10.8653 20.1437C16.3879 20.1437 20.8649 15.6667 20.8649 10.1441C20.8649 4.62149 16.3879 0.144531 10.8653 0.144531C5.34269 0.144531 0.865723 4.62149 0.865723 10.1441C0.865723 15.6667 5.34269 20.1437 10.8653 20.1437Z" fill="white"/>
<path d="M20.2927 6.80908H14.1313C14.399 8.94525 14.4006 11.299 14.1365 13.4378H20.3058C20.666 12.406 20.864 11.2979 20.864 10.1434C20.8641 8.97366 20.6615 7.85198 20.2927 6.80908Z" fill="#2B479D"/>
<path d="M14.1314 6.80885H20.2927C20.2917 6.80568 20.2908 6.80302 20.2895 6.80015C19.0098 3.19151 15.7176 0.536514 11.7622 0.184082C13.293 1.02313 13.7402 3.68146 14.1314 6.80885Z" fill="#EFECEC"/>
<path d="M11.7627 20.1014C15.7252 19.7484 19.0219 17.0842 20.2967 13.4659C20.3001 13.4563 20.3029 13.4468 20.3064 13.4375H14.137C13.7487 16.5818 13.2996 19.2589 11.7627 20.1014Z" fill="#E63026"/>
<path d="M0.864258 10.1434C0.864258 11.2981 1.06258 12.406 1.4224 13.4378H14.6513C14.9156 11.2988 14.9137 8.94525 14.6464 6.80908H1.4357C1.06684 7.85202 0.864258 8.97371 0.864258 10.1434Z" fill="#3757A6"/>
<path d="M1.43871 6.80018C1.43778 6.80301 1.43681 6.80571 1.43555 6.80887H14.6463C14.2547 3.68145 13.2928 1.02315 11.7622 0.184107C11.4661 0.157887 11.1668 0.143066 10.8639 0.143066C6.51378 0.143024 2.81445 2.92131 1.43871 6.80018Z" fill="#EFEFEF"/>
<path d="M14.6513 13.4375H1.42236C1.4257 13.4468 1.42882 13.4563 1.43199 13.4659C2.80224 17.3547 6.50689 20.1428 10.864 20.1428C11.1669 20.1428 11.4662 20.128 11.7623 20.1014C13.2994 19.2589 14.263 16.5819 14.6513 13.4375Z" fill="#E73B36"/>
</g>
<defs>

</defs>
</svg>
