<svg width="22" height="24" viewBox="0 0 22 24" fill="none" xmlns="http://www.w3.org/2000/svg">
<path fill-rule="evenodd" clip-rule="evenodd" d="M19.8 0.258789H2.2C0.984973 0.258789 0 1.28853 0 2.55879V20.9588C0 22.229 0.984973 23.2588 2.2 23.2588H19.8C21.015 23.2588 22 22.229 22 20.9588V2.55879C22 1.28853 21.015 0.258789 19.8 0.258789ZM14.7431 13.1388H11V10.7731H17.2323C17.2889 11.1181 17.336 11.4631 17.336 11.9165C17.336 15.8594 14.8092 18.6588 11 18.6588C7.35115 18.6588 4.40001 15.5735 4.40001 11.7588C4.40001 7.94408 7.35115 4.8588 11 4.8588C12.782 4.8588 14.2717 5.53894 15.422 6.66265L13.6306 8.46651C13.1403 7.97366 12.2823 7.40194 11 7.40194C8.74658 7.40194 6.90801 9.35365 6.90801 11.7588C6.90801 14.1639 8.74658 16.1157 11 16.1157C13.6117 16.1157 14.5923 14.1541 14.7431 13.1388Z" fill="#999999"/>
</svg>
