<svg width="23" height="24" viewBox="0 0 23 24" fill="none" xmlns="http://www.w3.org/2000/svg">
<path fill-rule="evenodd" clip-rule="evenodd" d="M6.9 0.258789H16.1C19.9108 0.258789 23 3.34802 23 7.15879V16.3588C23 20.1696 19.9108 23.2588 16.1 23.2588H6.9C3.08924 23.2588 0 20.1696 0 16.3588V7.15879C0 3.34802 3.08924 0.258789 6.9 0.258789ZM18.4 3.70881C18.975 3.70881 19.55 4.28381 19.55 4.85881C19.55 5.43381 18.975 6.00881 18.4 6.00881C17.825 6.00881 17.25 5.43381 17.25 4.85881C17.25 4.28381 17.825 3.70881 18.4 3.70881ZM17.25 11.7588C17.25 8.58766 14.6711 6.00879 11.5 6.00879C8.32887 6.00879 5.75 8.58766 5.75 11.7588C5.75 14.9299 8.32887 17.5088 11.5 17.5088C14.6711 17.5088 17.25 14.9299 17.25 11.7588ZM11.5 8.30877C9.59462 8.30877 8.05 9.85339 8.05 11.7588C8.05 13.6642 9.59462 15.2088 11.5 15.2088C13.4054 15.2088 14.95 13.6642 14.95 11.7588C14.95 9.85339 13.4054 8.30877 11.5 8.30877Z" fill="#999999"/>
</svg>
