<svg width="26" height="26" viewBox="0 0 26 26" fill="none" xmlns="http://www.w3.org/2000/svg">
<g>
<path d="M9.55327 12.6591C6.63875 12.6591 4.26758 10.2881 4.26758 7.37358C4.26758 4.45907 6.63875 2.08789 9.55327 2.08789C12.4678 2.08789 14.839 4.45907 14.839 7.37358C14.839 10.2881 12.4678 12.6591 9.55327 12.6591ZM9.55327 3.67358C7.51309 3.67358 5.85327 5.33321 5.85327 7.37358C5.85327 9.41376 7.51309 11.0734 9.55327 11.0734C11.5934 11.0734 13.2533 9.41376 13.2533 7.37358C13.2533 5.33321 11.5934 3.67358 9.55327 3.67358Z" fill="#1A2F34"/>
<path d="M18.2745 24.2876H0.831906C0.394255 24.2876 0.0390625 23.9324 0.0390625 23.4947V19.7947C0.0390625 17.0262 2.29178 14.7734 5.06034 14.7734H14.046C16.8146 14.7734 19.0673 17.0262 19.0673 19.7947V23.4947C19.0673 23.9324 18.7121 24.2876 18.2745 24.2876ZM1.62475 22.7019H17.4816V19.7947C17.4816 17.9005 15.9403 16.3591 14.046 16.3591H5.06034C3.16611 16.3591 1.62475 17.9005 1.62475 19.7947V22.7019Z" fill="#1A2F34"/>
<path d="M24.6172 12.9236H15.6317C15.1941 12.9236 14.8389 12.5684 14.8389 12.1307C14.8389 11.6931 15.1941 11.3379 15.6317 11.3379H24.6172C25.0549 11.3379 25.4101 11.6931 25.4101 12.1307C25.4101 12.5684 25.0549 12.9236 24.6172 12.9236Z" fill="#1A2F34"/>
<path d="M20.3888 17.1519C20.1858 17.1519 19.9829 17.0747 19.8285 16.9195C19.5188 16.6096 19.5188 16.1074 19.8285 15.7977L23.4967 12.1295L19.8285 8.46122C19.5188 8.15151 19.5188 7.64941 19.8285 7.3397C20.1382 7.03 20.6403 7.03 20.9502 7.3397L25.1786 11.5681C25.4883 11.8778 25.4883 12.3801 25.1786 12.6899L20.9502 16.9183C20.7947 17.0747 20.5917 17.1519 20.3888 17.1519Z" fill="#1A2F34"/>
</g>
</svg>
