<svg width="84" height="22" viewBox="0 0 84 22" fill="none" xmlns="http://www.w3.org/2000/svg">
<rect x="0.881348" y="0.252441" width="82.6122" height="21.1843" fill="#1A2F34"/>
<path d="M6.59126 5.25704H8.44477V10.0165H13.3142V5.25704H15.1677V16.2524H13.3142V11.4616H8.44477V16.2524H6.59126V5.25704ZM21.9166 16.4409C20.482 16.4409 19.3824 16.1006 18.618 15.4199C17.8535 14.7393 17.4713 13.7444 17.4713 12.4355V9.07402C17.4713 7.76504 17.8535 6.77022 18.618 6.08955C19.3824 5.40888 20.482 5.06855 21.9166 5.06855C23.3512 5.06855 24.4455 5.40888 25.1995 6.08955C25.9639 6.77022 26.3462 7.76504 26.3462 9.07402V12.4355C26.3462 13.7444 25.9639 14.7393 25.1995 15.4199C24.4455 16.1006 23.3512 16.4409 21.9166 16.4409ZM21.9166 14.9801C22.7439 14.9801 23.3774 14.7654 23.8172 14.3361C24.2675 13.8963 24.4927 13.2627 24.4927 12.4355V9.07402C24.4927 8.24674 24.2675 7.61843 23.8172 7.18909C23.3774 6.74927 22.7439 6.52937 21.9166 6.52937C21.0788 6.52937 20.4348 6.74927 19.9845 7.18909C19.5447 7.61843 19.3248 8.24674 19.3248 9.07402V12.4355C19.3248 13.2627 19.5447 13.8963 19.9845 14.3361C20.4348 14.7654 21.0788 14.9801 21.9166 14.9801ZM31.9328 16.2524C30.6343 16.2524 29.6919 15.9697 29.1055 15.4042C28.5295 14.8283 28.2415 13.9853 28.2415 12.8753V5.25704H30.095V12.8753C30.095 13.535 30.2416 14.0219 30.5349 14.3361C30.8385 14.6398 31.3045 14.7916 31.9328 14.7916H35.4514V16.2524H31.9328ZM40.7843 16.4409C39.3496 16.4409 38.2501 16.1006 37.4856 15.4199C36.7212 14.7393 36.339 13.7444 36.339 12.4355V9.07402C36.339 7.76504 36.7212 6.77022 37.4856 6.08955C38.2501 5.40888 39.3496 5.06855 40.7843 5.06855C42.2189 5.06855 43.3132 5.40888 44.0672 6.08955C44.8316 6.77022 45.2138 7.76504 45.2138 9.07402V12.4355C45.2138 13.7444 44.8316 14.7393 44.0672 15.4199C43.3132 16.1006 42.2189 16.4409 40.7843 16.4409ZM40.7843 14.9801C41.6115 14.9801 42.2451 14.7654 42.6849 14.3361C43.1352 13.8963 43.3603 13.2627 43.3603 12.4355V9.07402C43.3603 8.24674 43.1352 7.61843 42.6849 7.18909C42.2451 6.74927 41.6115 6.52937 40.7843 6.52937C39.9465 6.52937 39.3025 6.74927 38.8522 7.18909C38.4124 7.61843 38.1925 8.24674 38.1925 9.07402V12.4355C38.1925 13.2627 38.4124 13.8963 38.8522 14.3361C39.3025 14.7654 39.9465 14.9801 40.7843 14.9801ZM47.5019 5.25704H51.5388C52.743 5.25704 53.696 5.43506 54.3976 5.7911C55.0992 6.14714 55.6071 6.72309 55.9212 7.51895C56.2354 8.30434 56.3925 9.38293 56.3925 10.7547C56.3925 12.1265 56.2354 13.2104 55.9212 14.0062C55.6071 14.7916 55.0992 15.3623 54.3976 15.7184C53.696 16.0744 52.743 16.2524 51.5388 16.2524H47.5019V5.25704ZM51.5388 14.7916C52.2823 14.7916 52.8687 14.6607 53.298 14.3989C53.7378 14.1371 54.052 13.7183 54.2405 13.1423C54.4395 12.5559 54.5389 11.76 54.5389 10.7547C54.5389 9.74945 54.4395 8.95883 54.2405 8.38288C54.052 7.79645 53.7378 7.37235 53.298 7.11055C52.8687 6.84876 52.2823 6.71786 51.5388 6.71786H49.3554V14.7916H51.5388ZM62.5971 16.4409C61.1625 16.4409 60.0629 16.1006 59.2985 15.4199C58.5341 14.7393 58.1518 13.7444 58.1518 12.4355V9.07402C58.1518 7.76504 58.5341 6.77022 59.2985 6.08955C60.0629 5.40888 61.1625 5.06855 62.5971 5.06855C64.0318 5.06855 65.1261 5.40888 65.88 6.08955C66.6445 6.77022 67.0267 7.76504 67.0267 9.07402V12.4355C67.0267 13.7444 66.6445 14.7393 65.88 15.4199C65.1261 16.1006 64.0318 16.4409 62.5971 16.4409ZM62.5971 14.9801C63.4244 14.9801 64.0579 14.7654 64.4978 14.3361C64.948 13.8963 65.1732 13.2627 65.1732 12.4355V9.07402C65.1732 8.24674 64.948 7.61843 64.4978 7.18909C64.0579 6.74927 63.4244 6.52937 62.5971 6.52937C61.7594 6.52937 61.1154 6.74927 60.6651 7.18909C60.2253 7.61843 60.0053 8.24674 60.0053 9.07402V12.4355C60.0053 13.2627 60.2253 13.8963 60.6651 14.3361C61.1154 14.7654 61.7594 14.9801 62.5971 14.9801ZM74.3255 9.57666C74.8177 9.68138 75.2208 9.84893 75.535 10.0793C75.8492 10.3097 76.1162 10.6238 76.3361 11.0218C76.5665 11.4197 76.7969 11.9485 77.0272 12.6083L78.2367 16.2524H76.3675L75.2051 12.781C75.0585 12.3412 74.9119 12.0009 74.7653 11.76C74.6187 11.5192 74.4198 11.3255 74.1684 11.1788C73.9171 11.0322 73.5663 10.9328 73.116 10.8804L71.1683 13.0009V16.2524H69.3147V5.25704H71.1683V10.7076L76.1005 5.25704H78.3153L74.3255 9.57666Z" fill="white"/>
</svg>
