<svg width="103" height="81" viewBox="0 0 103 81" fill="none" xmlns="http://www.w3.org/2000/svg">
    <path d="M46.6893 -37.0026L-38.8515 12.3844C-43.6344 15.1458 -45.2731 21.2617 -42.5117 26.0446L-5.00222 91.013C-2.2408 95.7959 3.87512 97.4347 8.65804 94.6733L94.1988 45.2863C98.9818 42.5248 100.621 36.4089 97.8591 31.626L60.3496 -33.3423C57.5882 -38.1253 51.4722 -39.764 46.6893 -37.0026Z" fill="#FAFAFA" stroke="#1A2F34" stroke-width="3.5" stroke-miterlimit="10" stroke-linecap="round" stroke-linejoin="round"/>
    <path d="M78.1714 54.541C86.3577 49.8146 84.0221 37.418 74.6771 35.9947L41.6796 30.9689C38.9508 30.5533 36.3011 32.0954 35.3147 34.6734C34.3227 37.2657 31.6503 38.8087 28.9093 38.3716C26.1834 37.9369 23.5231 39.4605 22.5186 42.0315L10.3723 73.1211C6.93247 81.9258 16.5004 90.1467 24.6867 85.4204L78.1714 54.541Z" fill="#FAFAFA" stroke="#1A2F34" stroke-width="3.5" stroke-miterlimit="10" stroke-linecap="round" stroke-linejoin="round"/>
    <path d="M-40.4688 13.3182C-44.3585 15.5639 -45.6912 20.5376 -43.4455 24.4273C-42.2077 26.5712 -40.0608 28.0346 -37.6128 28.403L25.7303 37.9354C30.3421 38.6294 34.8214 36.0433 36.5263 31.7023L59.9425 -27.9206C60.8475 -30.2248 60.6536 -32.8158 59.4158 -34.9597C57.1701 -38.8494 52.1964 -40.1821 48.3067 -37.9364L-40.4688 13.3182Z" fill="#FAFAFA" stroke="#1A2F34" stroke-width="3.5" stroke-miterlimit="10" stroke-linecap="round" stroke-linejoin="round"/>
</svg>
