<svg width="39" height="40" viewBox="0 0 39 40" fill="none" xmlns="http://www.w3.org/2000/svg">
<path d="M36.9108 20.2781C36.9108 10.6238 29.0844 2.79736 19.43 2.79736V5.71082C27.4753 5.71082 33.9973 12.2328 33.9973 20.2781H36.9108Z" fill="#1A2F34"/>
<path fill-rule="evenodd" clip-rule="evenodd" d="M1.97446 11.2824C1.83332 13.176 2.30131 14.9583 2.94758 16.7034C4.28468 20.3124 6.32005 23.5056 8.78626 26.4462C12.1216 30.4117 16.1032 33.5529 20.7682 35.8178C22.8704 36.8352 25.0469 37.6223 27.4092 37.7486C29.0285 37.8377 30.3536 37.3234 31.5839 36.1594C32.12 35.6522 32.6703 35.0859 33.2218 34.5185C33.4981 34.2341 33.7749 33.9493 34.0501 33.6717C35.2684 32.4464 35.2758 30.9538 34.065 29.7359C32.6239 28.2805 31.1753 26.8324 29.7194 25.3918C28.5308 24.211 27.0452 24.2185 25.8566 25.3918C25.496 25.7494 25.2094 26.0245 24.9394 26.2838C24.5311 26.6761 24.1605 27.032 23.6283 27.5819C23.3832 27.8343 23.2587 27.864 22.878 27.723C22.4974 27.5819 21.6747 27.1437 21.1101 26.7947C18.4879 25.1536 16.2891 23.0297 14.3429 20.6386C13.3772 19.4504 12.5155 18.1806 11.9212 16.7548C11.7949 16.4652 11.8172 16.2721 12.0549 16.0419C12.3572 15.7496 12.6049 15.5128 12.8339 15.2938C13.2915 14.8563 13.6744 14.4902 14.2684 13.8964C15.5089 12.6488 15.5015 11.1859 14.261 9.93088C13.7904 9.45547 13.3164 8.98336 12.8436 8.51235L12.8399 8.50861C12.6049 8.27458 12.3703 8.04081 12.1365 7.80705C11.4085 7.07194 10.6804 6.33666 9.94509 5.61639C8.75655 4.45051 7.26345 4.44309 6.07491 5.61639C6.07491 5.61639 4.26558 7.34009 3.35614 8.30459C2.44669 9.26909 2.0636 10.1165 1.97446 11.2824ZM8.47116 8.25936C8.21727 8.01043 8.18957 7.98326 8.01286 7.98326C7.83237 7.98326 7.74075 8.06853 7.57398 8.22371C7.54712 8.24871 7.51827 8.27555 7.48682 8.30412C7.26013 8.51001 5.5003 10.2737 5.5003 10.2737C5.5003 10.2737 5.05272 10.7282 4.91351 11.168C4.77429 11.6079 4.86102 12.6657 4.9814 13.2687C5.96322 18.1867 9.45903 23.0324 12.5601 26.3068C15.7105 29.6335 20.1988 32.9092 25.5392 34.558C26.2168 34.7672 27.9904 34.9406 28.5353 34.7337C29.0803 34.5267 29.6073 34.031 29.6073 34.031L31.1433 32.4651C31.1433 32.4651 31.6287 32.0274 31.6287 31.7591C31.6287 31.4907 31.4938 31.317 31.3113 31.1337C29.5751 29.3892 28.6183 28.4242 28.441 28.2386L28.4093 28.2054C28.1374 27.9204 28.0081 27.7849 27.7761 27.7849C27.5527 27.7849 27.3312 28.0183 27.1896 28.1674L27.1581 28.2005C25.317 30.1201 24.6861 30.6219 23.5593 30.7113C21.7166 30.8575 18.1383 28.8635 14.35 25.0215C10.5617 21.1795 8.73585 17.4915 8.93214 16.128C9.11719 14.8427 9.82189 14.1574 10.0176 13.9671L10.0475 13.9378C10.1854 13.7993 11.6654 12.3832 11.6654 12.3832C11.6654 12.3832 11.9869 12.0944 11.9869 11.9275C11.9869 11.7721 11.9177 11.7031 11.8214 11.6071L11.7994 11.5851C9.95443 9.72927 8.90085 8.67506 8.63865 8.42246C8.57352 8.35972 8.51831 8.30558 8.47116 8.25936Z" fill="#1A2F34"/>
<path d="M19.43 8.62429C25.8662 8.62429 31.0838 13.8419 31.0838 20.2781H28.1704C28.1704 15.451 24.2572 11.5377 19.43 11.5377V8.62429Z" fill="#1A2F34"/>
</svg>
