<svg width="12" height="11" viewBox="0 0 11 11" fill="none" xmlns="http://www.w3.org/2000/svg">
<path d="M0.499023 5.03562C0.499023 4.63305 0.81882 4.3067 1.21331 4.3067H9.78474C10.1792 4.3067 10.499 4.63305 10.499 5.03562C10.499 5.43819 10.1792 5.76453 9.78474 5.76453H1.21331C0.81882 5.76453 0.499023 5.43819 0.499023 5.03562Z" fill="#111111"/>
<path d="M5.49928 0.0356445C5.88369 0.0356445 6.19531 0.355441 6.19531 0.74993L6.19531 9.32136C6.19531 9.71585 5.88369 10.0356 5.49928 10.0356C5.11487 10.0356 4.80325 9.71585 4.80325 9.32136L4.80325 0.74993C4.80325 0.355441 5.11487 0.0356445 5.49928 0.0356445Z" fill="#111111"/>
</svg>

