<svg width="17" height="17" viewBox="0 0 17 17" fill="none" xmlns="http://www.w3.org/2000/svg">
<g>
<path d="M15.9591 8.04842L16.693 6.21754C16.7735 6.01556 16.7108 5.78657 16.5341 5.64958L14.943 4.41566L14.621 2.47879C14.5855 2.26481 14.4099 2.09782 14.1862 2.06382L12.1613 1.75584L10.8723 0.232947C10.7301 0.0639583 10.4855 0.00396239 10.2796 0.0809572L8.36443 0.78391L6.45033 0.0819571C6.23812 0.00396239 6.00081 0.0659582 5.8576 0.233947L4.5676 1.75684L2.54269 2.06482C2.32002 2.09882 2.1444 2.26681 2.10885 2.47979L1.78688 4.41666L0.194757 5.65058C0.0191327 5.78657 -0.0446357 6.01556 0.0358588 6.21754L0.769718 8.04842L0.0358588 9.87929C-0.0456811 10.0813 0.0191327 10.3103 0.194757 10.4463L1.78688 11.6792L2.10885 13.616C2.1444 13.83 2.31898 13.998 2.54269 14.032L4.5676 14.34L5.8576 15.8619C6.00081 16.0319 6.24021 16.0919 6.45138 16.0139L8.36443 15.3129L10.2785 16.0149C10.3392 16.0369 10.4019 16.0479 10.4656 16.0479C10.6193 16.0479 10.7709 15.9829 10.8723 15.8619L12.1613 14.34L14.1862 14.032C14.4099 13.998 14.5855 13.83 14.621 13.616L14.943 11.6792L16.5341 10.4463C16.7108 10.3093 16.7735 10.0813 16.693 9.87929L15.9591 8.04842Z" fill="#FF5722"/>
<path d="M6.79561 7.0496C5.93108 7.0496 5.22754 6.37665 5.22754 5.5497C5.22754 4.72276 5.93108 4.0498 6.79561 4.0498C7.66014 4.0498 8.36368 4.72276 8.36368 5.5497C8.36368 6.37665 7.66014 7.0496 6.79561 7.0496ZM6.79561 5.04974C6.50709 5.04974 6.27292 5.27372 6.27292 5.5497C6.27292 5.82568 6.50709 6.04967 6.79561 6.04967C7.08414 6.04967 7.3183 5.82568 7.3183 5.5497C7.3183 5.27372 7.08414 5.04974 6.79561 5.04974Z" fill="#FAFAFA"/>
<path d="M9.93136 12.0481C9.06682 12.0481 8.36328 11.3752 8.36328 10.5482C8.36328 9.72129 9.06682 9.04834 9.93136 9.04834C10.7959 9.04834 11.4994 9.72129 11.4994 10.5482C11.4994 11.3752 10.7959 12.0481 9.93136 12.0481ZM9.93136 10.0483C9.64388 10.0483 9.40866 10.2733 9.40866 10.5482C9.40866 10.8232 9.64388 11.0482 9.93136 11.0482C10.2188 11.0482 10.454 10.8232 10.454 10.5482C10.454 10.2733 10.2188 10.0483 9.93136 10.0483Z" fill="#FAFAFA"/>
<path d="M5.75074 12.0483C5.64516 12.0483 5.53957 12.0184 5.44758 11.9554C5.21237 11.7944 5.15801 11.4824 5.32632 11.2574L10.5532 4.25788C10.7215 4.0329 11.0477 3.9809 11.2829 4.14189C11.5181 4.30188 11.5714 4.61486 11.4042 4.83884L6.17726 11.8384C6.07376 11.9754 5.91382 12.0483 5.75074 12.0483Z" fill="#FAFAFA"/>
</g>
</svg>
