<svg width="23" height="23" viewBox="0 0 23 23" fill="none" xmlns="http://www.w3.org/2000/svg">
<g >
<path d="M22.2369 8.83824C22.1925 8.70217 22.0749 8.60293 21.9331 8.58226L15.1332 7.59404L12.0923 1.4324C12.0291 1.30385 11.8983 1.22266 11.7555 1.22266C11.6126 1.22266 11.4815 1.30385 11.4187 1.4324L8.37733 7.59441L1.57743 8.58264C1.43572 8.60331 1.31844 8.70217 1.27371 8.83862C1.22973 8.97432 1.26619 9.12392 1.36881 9.22353L6.28962 14.0199L5.12774 20.7928C5.10368 20.9337 5.16157 21.0762 5.27697 21.1604C5.39312 21.2453 5.54686 21.2562 5.67278 21.189L11.7555 17.9916L17.8374 21.189C17.8923 21.2179 17.9528 21.2322 18.0126 21.2322C18.0904 21.2322 18.1678 21.2081 18.2336 21.1604C18.3494 21.0762 18.4073 20.9337 18.3828 20.7928L17.2213 14.0203L22.1421 9.22353C22.2444 9.12317 22.2812 8.97394 22.2369 8.83824Z" fill="#1A2F34"/>
</g>
</svg>
