<svg width="17" height="17" viewBox="0 0 17 17" fill="none" xmlns="http://www.w3.org/2000/svg">
<path fill-rule="evenodd" clip-rule="evenodd" d="M16.6875 15.3255L15.616 16.397L11.2168 11.9978C10.1092 12.8739 8.70943 13.397 7.1875 13.397C3.59765 13.397 0.6875 10.4868 0.6875 6.89697C0.6875 3.30712 3.59765 0.396973 7.1875 0.396973C10.7774 0.396973 13.6875 3.30712 13.6875 6.89697C13.6875 8.4189 13.1644 9.81866 12.2883 10.9263L16.6875 15.3255ZM7.20276 11.9122C9.96419 11.9122 12.2028 9.67366 12.2028 6.91224C12.2028 4.15081 9.96419 1.91224 7.20276 1.91224C4.44134 1.91224 2.20276 4.15081 2.20276 6.91224C2.20276 9.67366 4.44134 11.9122 7.20276 11.9122Z" fill="#1A2F34"/>
</svg>
