<svg width="19" height="16" viewBox="0 0 19 16" fill="none" xmlns="http://www.w3.org/2000/svg">
<path fill-rule="evenodd" clip-rule="evenodd" d="M18.4293 0.321533C18.3492 0.255497 18.2352 0.240176 18.1386 0.282295L0.676689 7.90585C0.58268 7.94691 0.522142 8.03504 0.521012 8.13243C0.519882 8.22981 0.578429 8.31916 0.671523 8.36209L4.121 9.8249C4.21161 9.86672 11.321 6.34632 11.321 6.34632L6.95849 10.9386C6.87022 11.0315 6.821 11.1548 6.821 11.2829V14.6891C6.821 15.1369 7.36425 15.3589 7.67785 15.0394L9.96199 12.712L13.5631 14.4246C13.6335 14.4562 13.715 14.4575 13.7865 14.4283C13.858 14.399 13.9125 14.3421 13.9358 14.2722L18.5086 0.587345C18.5406 0.49178 18.5094 0.387569 18.4293 0.321533Z" fill="#828282"/>
</svg>
