<svg width="22" height="22" viewBox="0 0 22 22" fill="none" xmlns="http://www.w3.org/2000/svg">
<g>
<path d="M17.5236 21.978C17.4332 21.978 17.3422 21.9594 17.257 21.9215L11.1957 19.223L5.13432 21.9215C4.91002 22.021 4.64854 21.9864 4.45756 21.8336C4.26594 21.6802 4.17622 21.4324 4.22429 21.1917L5.56113 14.4947L0.887912 9.81324C0.7168 9.64185 0.653995 9.39022 0.72385 9.15785C0.793705 8.92613 0.985965 8.75153 1.22309 8.70403L7.92146 7.3618L10.5958 1.33429C10.8073 0.859275 11.584 0.859275 11.7955 1.33429L14.4699 7.3618L21.1682 8.70403C21.4054 8.75153 21.5976 8.92613 21.6675 9.15785C21.7373 9.39022 21.6745 9.64185 21.5034 9.81324L16.8302 14.4947L18.167 21.1917C18.2151 21.4324 18.1254 21.6802 17.9338 21.8336C17.8152 21.9286 17.6697 21.978 17.5236 21.978H17.5236ZM11.1956 17.8461C11.2867 17.8461 11.3777 17.8647 11.4623 17.9025L16.6315 20.2044L15.4741 14.4074C15.4312 14.1917 15.4984 13.9689 15.6535 13.8136L19.7083 9.75225L13.8796 8.58398C13.6707 8.54225 13.4951 8.40168 13.4086 8.20654L11.1957 3.21956L8.98272 8.20654C8.89621 8.40168 8.72061 8.54225 8.51168 8.58398L2.68298 9.75225L6.73776 13.8136C6.89285 13.9689 6.96014 14.1917 6.91721 14.4074L5.7598 20.2044L10.9291 17.9025C11.0136 17.8647 11.1046 17.8461 11.1957 17.8461H11.1956Z" fill="#1A2F34"/>
</g>
</svg>
