<svg width="21" height="21" viewBox="0 0 21 21" fill="none" xmlns="http://www.w3.org/2000/svg">
<path fill-rule="evenodd" clip-rule="evenodd" d="M6.58057 8.17969V5.67969C6.58057 3.74669 8.14757 2.17969 10.0806 2.17969H11.0806C13.0136 2.17969 14.5806 3.74669 14.5806 5.67969V8.17969H17.5806V18.1797H3.58057V8.17969H6.58057ZM8.08057 8.17969H13.0806V5.67969C13.0806 4.57512 12.1851 3.67969 11.0806 3.67969H10.0806C8.976 3.67969 8.08057 4.57512 8.08057 5.67969V8.17969ZM10.5806 11.1797C10.9948 11.1797 11.3306 11.5155 11.3306 11.9297V14.4297C11.3306 14.8439 10.9948 15.1797 10.5806 15.1797C10.1664 15.1797 9.83057 14.8439 9.83057 14.4297V11.9297C9.83057 11.5155 10.1664 11.1797 10.5806 11.1797ZM5.08057 9.67969V16.6797H16.0806V9.67969H5.08057Z" fill="#777777"/>
</svg>
