<svg width="77" height="79" viewBox="0 0 77 79" fill="none" xmlns="http://www.w3.org/2000/svg">
<path fill-rule="evenodd" clip-rule="evenodd" d="M0.862305 32.5342C25.9724 11.3804 38.639 0.803467 38.8623 0.803467C39.0856 0.803467 51.7522 11.3804 76.8623 32.5342V75.3419C76.8623 77.2537 75.3062 78.8035 73.3867 78.8035H4.33791C2.41839 78.8035 0.862305 77.2537 0.862305 75.3419V32.5342Z" fill="#1A2F34"/>
<path fill-rule="evenodd" clip-rule="evenodd" d="M0.862305 32.5342C25.9724 11.3804 38.639 0.803467 38.8623 0.803467C39.0856 0.803467 51.7522 11.3804 76.8623 32.5342V75.3419C76.8623 77.2537 75.3062 78.8035 73.3867 78.8035H4.33791C2.41839 78.8035 0.862305 77.2537 0.862305 75.3419V32.5342Z" fill="url(#paint0_linear)"/>
<rect x="6.65527" y="32.5342" width="64.4146" height="46.2692" rx="5" fill="white"/>
<rect x="6.65527" y="32.5342" width="64.4146" height="46.2692" rx="5" fill="url(#paint1_linear)"/>
<path fill-rule="evenodd" clip-rule="evenodd" d="M38.8623 59.6496L76.8623 32.5342V75.3419C76.8623 77.2537 75.3062 78.8035 73.3867 78.8035H4.33791C2.41839 78.8035 0.862305 77.2537 0.862305 75.3419V32.5342L38.8623 59.6496Z" fill="#1A2F34"/>
<path fill-rule="evenodd" clip-rule="evenodd" d="M38.8623 59.6496L76.8623 32.5342V75.3419C76.8623 77.2537 75.3062 78.8035 73.3867 78.8035H4.33791C2.41839 78.8035 0.862305 77.2537 0.862305 75.3419V32.5342L38.8623 59.6496Z" fill="url(#paint2_linear)"/>
<path fill-rule="evenodd" clip-rule="evenodd" d="M0.862305 32.5343V32.4189C1.8439 31.5998 2.80649 30.7897 3.75865 29.9958L38.8623 55.1497L73.966 29.9958C74.9181 30.7897 75.8807 31.5998 76.8623 32.4189V32.5343L38.8623 59.7651L0.862305 32.5343Z" fill="url(#paint3_linear)"/>
<defs>
<linearGradient id="paint0_linear" x1="0.862305" y1="0.803467" x2="0.862305" y2="78.8035" gradientUnits="userSpaceOnUse">
<stop stop-color="#AF3B6E" stop-opacity="0.01"/>
<stop offset="1" stop-opacity="0.2"/>
</linearGradient>
<linearGradient id="paint1_linear" x1="6.65527" y1="32.5342" x2="6.65527" y2="78.8035" gradientUnits="userSpaceOnUse">
<stop stop-color="white" stop-opacity="0.01"/>
<stop offset="1" stop-opacity="0.05"/>
</linearGradient>
<linearGradient id="paint2_linear" x1="0.862305" y1="32.5342" x2="0.862305" y2="78.8035" gradientUnits="userSpaceOnUse">
<stop stop-color="#E478A3" stop-opacity="0.01"/>
<stop offset="1" stop-color="#AF3B6E" stop-opacity="0.3"/>
</linearGradient>
<linearGradient id="paint3_linear" x1="0.862305" y1="44.8805" x2="76.8623" y2="44.8805" gradientUnits="userSpaceOnUse">
<stop stop-color="#AF3B6E" stop-opacity="0.01"/>
<stop offset="1" stop-opacity="0.1"/>
</linearGradient>
</defs>
</svg>
